HIERARCHY
ROOT Hips
{
	OFFSET	0.00	0.00	0.00
	CHANNELS 6 Xposition Yposition Zposition Zrotation Xrotation Yrotation
	JOINT LeftUpLeg
	{
		OFFSET	 0.126116	-0.014019	-0.065224
		CHANNELS 3 Zrotation Xrotation Yrotation
		JOINT LeftLeg
		{
			OFFSET	 0.000000	 0.000000	 0.569914
			CHANNELS 3 Zrotation Xrotation Yrotation
			JOINT LeftFoot
			{
				OFFSET	 0.000000	 0.000000	 0.544423
				CHANNELS 3 Zrotation Xrotation Yrotation
				JOINT LeftToeBase
				{
					OFFSET	 0.000000	 0.000000	 0.207117
					CHANNELS 3 Zrotation Xrotation Yrotation
					End Site
					{
						OFFSET	 0.000000	 0.000000	 0.207117
					}
				}
			}
		}
	}
	JOINT RightUpLeg
	{
		OFFSET	-0.124023	-0.008373	-0.065224
		CHANNELS 3 Zrotation Xrotation Yrotation
		JOINT RightLeg
		{
			OFFSET	 0.000000	 0.000000	 0.570047
			CHANNELS 3 Zrotation Xrotation Yrotation
			JOINT RightFoot
			{
				OFFSET	 0.000000	 0.000000	 0.544354
				CHANNELS 3 Zrotation Xrotation Yrotation
				JOINT RightToeBase
				{
					OFFSET	 0.000000	 0.000000	 0.207540
					CHANNELS 3 Zrotation Xrotation Yrotation
					End Site
					{
						OFFSET	 0.000000	 0.000000	 0.207540
					}
				}
			}
		}
	}
	JOINT Spine
	{
		OFFSET	 0.000184	-0.007763	 0.117403
		CHANNELS 3 Zrotation Xrotation Yrotation
		JOINT Spine1
		{
			OFFSET	 0.000000	 0.000000	 0.137269
			CHANNELS 3 Zrotation Xrotation Yrotation
			JOINT Spine2
			{
				OFFSET	 0.000000	 0.000000	 0.156879
				CHANNELS 3 Zrotation Xrotation Yrotation
				JOINT LeftShoulder
				{
					OFFSET	 0.080501	-0.002496	 0.160144
					CHANNELS 3 Zrotation Xrotation Yrotation
					JOINT LeftArm
					{
						OFFSET	 0.000000	 0.000000	 0.164363
						CHANNELS 3 Zrotation Xrotation Yrotation
						JOINT LeftForeArm
						{
							OFFSET	 0.000000	 0.000000	 0.364576
							CHANNELS 3 Zrotation Xrotation Yrotation
							JOINT LeftHand
							{
								OFFSET	 0.000000	 0.000000	 0.360812
								CHANNELS 3 Zrotation Xrotation Yrotation
								JOINT LeftHandIndex1
								{
									OFFSET	 0.000000	 0.000000	 0.086006
									CHANNELS 3 Zrotation Xrotation Yrotation
									JOINT LeftHandIndex2
									{
										OFFSET	 0.000000	 0.000000	 0.047236
										CHANNELS 3 Zrotation Xrotation Yrotation
										JOINT LeftHandIndex3
										{
											OFFSET	-0.004284	-0.000551	 0.038166
											CHANNELS 3 Zrotation Xrotation Yrotation
											End Site
											{
												OFFSET	-0.004284	-0.000551	 0.038166
											}
										}
									}
								}
							}
						}
					}
				}
				JOINT Neck
				{
					OFFSET	 0.000000	 0.000000	 0.176489
					CHANNELS 3 Zrotation Xrotation Yrotation
					JOINT Head
					{
						OFFSET	 0.000000	-0.001747	 0.077940
						CHANNELS 3 Zrotation Xrotation Yrotation
						End Site
						{
							OFFSET	 0.000000	-0.001747	 0.077940
						}
					}
				}
				JOINT RightShoulder
				{
					OFFSET	-0.080363	 0.000306	 0.159706
					CHANNELS 3 Zrotation Xrotation Yrotation
					JOINT RightArm
					{
						OFFSET	 0.000000	 0.000000	 0.164196
						CHANNELS 3 Zrotation Xrotation Yrotation
						JOINT RightForeArm
						{
							OFFSET	 0.000000	 0.000000	 0.365611
							CHANNELS 3 Zrotation Xrotation Yrotation
							JOINT RightHand
							{
								OFFSET	 0.000000	 0.000000	 0.360648
								CHANNELS 3 Zrotation Xrotation Yrotation
								JOINT RightHandIndex1
								{
									OFFSET	 0.000000	 0.000000	 0.069977
									CHANNELS 3 Zrotation Xrotation Yrotation
									JOINT RightHandIndex2
									{
										OFFSET	 0.000000	 0.000000	 0.052305
										CHANNELS 3 Zrotation Xrotation Yrotation
										JOINT RightHandIndex3
										{
											OFFSET	 0.009002	-0.000782	 0.042196
											CHANNELS 3 Zrotation Xrotation Yrotation
											End Site
											{
												OFFSET	 0.009002	-0.000782	 0.042196
											}
										}
									}
								}
							}
						}
					}
				}
			}
		}
	}
}
MOTION
Frames:    11
Frame Time: 0.03333334
 0.179200	 2.675042	-0.673179	 8.639144	-2.148979	 0.453290	 6.880327	-3.811130	-179.023200	-2.173623	-36.385910	 1.553596	 5.828586	 89.355020	-4.382855	-2.376142	 30.430810	-0.043348	 1.319441	-27.911500	 179.400500	 25.258860	-75.183140	 28.741190	 30.689640	 89.812330	-23.515010	 2.379115	 29.567660	 0.025707	-1.235746	 4.328072	 0.915931	-1.226319	-1.894792	 1.050108	-0.261173	-4.623096	-0.027739	-91.805050	 77.878310	 178.956900	 35.892930	 64.212170	-46.895480	-9.111270	-4.125720	-28.354390	 3.679101	-2.102082	-5.367881	-3.812334	 37.924440	-2.927599	-2.450526	 36.184240	 0.754587	-1.378229	 35.397820	-2.634230	-0.301562	 4.018810	-1.629251	 0.287710	-11.712640	-1.633906	 89.795970	 78.947620	 179.577400	-41.931470	 71.311410	 44.391700	 1.551162	-7.471910	 25.019640	-13.283330	-3.216071	 9.582373	 6.437017	 35.671460	-0.771858	 2.830251	 35.756010	-7.813440	-2.350882	 35.473990	 5.254307
 0.193723	 2.611729	-0.677566	 8.942926	-1.834355	-0.427298	 6.068678	 0.962272	-177.640600	-2.958604	-32.784100	 0.969954	 29.980870	 89.918430	-29.340610	-2.376333	 30.395930	-0.042570	 1.923623	-32.019220	 179.691900	 15.148080	-67.194580	 18.313050	-176.659500	 88.823300	-175.756000	 2.377701	 29.846230	 0.031843	-1.369663	 4.297333	 1.882104	-1.455013	-2.019142	 0.985661	-0.288928	-4.764019	-0.031038	-91.778350	 78.485530	 178.812000	 35.213530	 62.531380	-48.429390	-8.721530	-4.441020	-30.854370	 3.800909	-2.104609	-5.367279	-3.812334	 37.924440	-2.927599	-2.450526	 36.184240	 0.754587	-1.378229	 35.397820	-2.634230	-0.350396	 4.140620	-2.274463	 0.476126	-12.110980	-1.265177	 89.785350	 78.345140	 179.472900	-41.683640	 71.464450	 43.085750	 1.852288	-7.667719	 26.628280	-12.840640	-3.202085	 9.591187	 6.437017	 35.671460	-0.771858	 2.830251	 35.756010	-7.813440	-2.350882	 35.473990	 5.254307
 0.207048	 2.546100	-0.680253	 9.172765	-1.264874	-0.855921	 6.220494	 7.234190	-176.996100	-3.483063	-25.617940	 1.077318	 8.105080	 89.009290	-7.189521	-2.368628	 31.742620	-0.072818	 2.277535	-34.611000	 179.733900	 9.825670	-56.682360	 12.130550	-159.073600	 89.387700	 167.158000	 2.384637	 28.393150	 0.000095	-1.389071	 4.060572	 2.404994	-1.549376	-2.130618	 0.945650	-0.320399	-4.842510	-0.034637	-91.760370	 78.813630	 178.756200	 34.642200	 61.141300	-49.758800	-8.643188	-4.500329	-32.495980	 3.606788	-2.117463	-5.365193	-3.812334	 37.924440	-2.927599	-2.450526	 36.184240	 0.754587	-1.378229	 35.397820	-2.634230	-0.345068	 4.329770	-2.754464	 0.550462	-12.451340	-1.178079	 89.777820	 78.019360	 179.448000	-41.552790	 71.703880	 42.376760	 2.048601	-7.709832	 27.159050	-12.660990	-3.198006	 9.593668	 6.437017	 35.671460	-0.771858	 2.830251	 35.756010	-7.813440	-2.350882	 35.473990	 5.254307
 0.219680	 2.481229	-0.682984	 9.393512	-0.722840	-1.121842	 8.270241	 16.995110	-176.711700	-4.140510	-11.323670	 1.530688	 3.279549	 83.940970	 0.455136	-2.350776	 34.371140	-0.133846	 2.840067	-35.608720	 179.727400	 6.499960	-46.840290	 8.251735	-146.440700	 89.585510	 154.514000	 2.386886	 27.871000	-0.011155	-1.303324	 3.685818	 2.677649	-1.487997	-2.270726	 0.987049	-0.240667	-4.860428	-0.026055	-91.753390	 78.931830	 178.741500	 34.310790	 60.416710	-50.684700	-8.666413	-4.506061	-33.067650	 3.517344	-2.112141	-5.366263	-3.812334	 37.924440	-2.927599	-2.450526	 36.184240	 0.754587	-1.378229	 35.397820	-2.634230	-0.210291	 4.405702	-3.087260	 0.662882	-12.543720	-1.098832	 89.775180	 77.902680	 179.454900	-41.372200	 72.047130	 42.076600	 2.059640	-7.622061	 26.427290	-12.847970	-3.204565	 9.589812	 6.437017	 35.671460	-0.771858	 2.830251	 35.756010	-7.813440	-2.350882	 35.473990	 5.254307
 0.229938	 2.410123	-0.685942	 9.957189	-0.850360	-1.293250	 8.301406	 20.501780	-177.335700	-3.738064	-11.613280	 1.619370	 3.983205	 84.093460	 0.095204	-2.311186	 38.796200	-0.243821	 3.242506	-35.616530	 179.726900	 3.515220	-39.190730	 5.251981	-170.190600	 89.191570	 177.213500	 2.372407	 30.832150	 0.053779	-1.375610	 3.711662	 2.638836	-1.486795	-2.327701	 1.017321	-0.126009	-4.824210	-0.013603	-91.755750	 78.881230	 178.703100	 34.760760	 60.297180	-52.002170	-8.650398	-4.497589	-32.501580	 3.600693	-2.116785	-5.365338	-3.812334	 37.924440	-2.927599	-2.450526	 36.184240	 0.754587	-1.378229	 35.397820	-2.634230	-0.110979	 4.270524	-3.248562	 0.830713	-12.314380	-0.811111	 89.775120	 77.948000	 179.352800	-40.945860	 72.574940	 41.800770	 1.903321	-7.400551	 24.517400	-13.411770	-3.221825	 9.578907	 6.437017	 35.671460	-0.771858	 2.830251	 35.756010	-7.813440	-2.350882	 35.473990	 5.254307
 0.239765	 2.331519	-0.688526	 10.608570	-0.995933	-1.237083	 8.545544	 24.334250	-178.790400	-2.570380	-11.586030	 1.806118	 5.184198	 82.449090	-0.105519	-2.254364	 43.421770	-0.371492	 3.056266	-34.498380	 179.376600	 3.077359	-37.443940	 4.654493	 171.964300	 89.435600	-165.310900	 2.370103	 31.234450	 0.062823	-1.497735	 3.649158	 2.281143	-1.511895	-2.242114	 0.936850	-0.059542	-4.687973	-0.006358	-91.762440	 78.756860	 178.647700	 35.866630	 60.936700	-52.955710	-8.522032	-4.459602	-30.609430	 3.885112	-2.106143	-5.366862	-3.812334	 37.924440	-2.927599	-2.450526	 36.184240	 0.754587	-1.378229	 35.397820	-2.634230	-0.101217	 4.163549	-3.241798	 0.939105	-11.923930	-0.302371	 89.778290	 78.075240	 179.302300	-39.608480	 73.253580	 40.344400	 1.824297	-7.117089	 22.452000	-14.031850	-3.245152	 9.563241	 6.437017	 35.671460	-0.771858	 2.830251	 35.756010	-7.813440	-2.350882	 35.473990	 5.254307
 0.248968	 2.242848	-0.691346	 11.258490	-1.322631	-1.004683	 9.220918	 28.121760	 179.073800	-1.348347	-11.554040	 2.003076	 5.782273	 77.740330	 0.583652	-2.165720	 48.631280	-0.537047	 2.463225	-32.679390	 178.482000	 5.618248	-40.219440	 6.392188	 7.025072	 87.939960	 0.871711	 2.384371	 28.454360	 0.001415	-1.519595	 2.959839	 1.829399	-1.420488	-2.060899	 0.748835	 0.058847	-4.363325	 0.006118	-91.766650	 78.677750	 178.571500	 37.194340	 62.339100	-52.730070	-8.402102	-4.330046	-27.805340	 4.229492	-2.106168	-5.366433	-3.812334	 37.924440	-2.927599	-2.450526	 36.184240	 0.754587	-1.378229	 35.397820	-2.634230	-0.015147	 4.375688	-3.248813	 1.064621	-11.470800	 0.408688	 89.781140	 78.169240	 179.363200	-37.260690	 73.851490	 37.301500	 1.654006	-6.766385	 20.429240	-14.578310	-3.272051	 9.544106	 6.437017	 35.671460	-0.771858	 2.830251	 35.756010	-7.813440	-2.350882	 35.473990	 5.254307
 0.258661	 2.148286	-0.690002	 12.121110	-2.059658	-0.854990	 9.324562	 29.945550	 177.141400	-1.402824	-14.049030	 1.947189	 4.899324	 68.539690	 0.997506	-2.119665	 50.769570	-0.613903	 1.614733	-30.471410	 177.575900	 7.083955	-44.379800	 7.570085	 6.320479	 84.676120	 1.453156	 2.397498	 24.839180	-0.075099	-1.535162	 2.569092	 1.314590	-1.276721	-1.831354	 0.619337	 0.256460	-3.937344	 0.025715	-91.777140	 78.511800	 178.528500	 38.334290	 64.531900	-51.191690	-8.411397	-4.233321	-24.938180	 4.756509	-2.135428	-5.359209	-3.812334	 37.924440	-2.927599	-2.450526	 36.184240	 0.754587	-1.378229	 35.397820	-2.634230	 0.139424	 4.506316	-3.111953	 1.229511	-10.728400	 0.925013	 89.785870	 78.342990	 179.370600	-34.849540	 74.159550	 34.163800	 1.461155	-6.370980	 18.635330	-14.932510	-3.306456	 9.520496	 6.437017	 35.671460	-0.771858	 2.830251	 35.756010	-7.813440	-2.350882	 35.473990	 5.254307
 0.262507	 2.047480	-0.680126	 13.408520	-2.824893	-0.926274	 7.572961	 16.274580	 174.655200	-0.940030	-44.402600	 1.508115	 2.412567	 60.169360	 0.537456	-2.248631	 43.818100	-0.383178	 0.768164	-25.888220	 176.789900	 7.632236	-46.758900	 7.751360	 6.207543	 85.492420	 1.100453	 2.407137	 19.219150	-0.188557	-1.592347	 2.527675	 1.223869	-1.255036	-1.648709	 0.613781	 0.385905	-3.504755	 0.037249	-91.780270	 78.464690	 178.507000	 37.268490	 67.640200	-46.880300	-8.999734	-4.207910	-21.943240	 5.660897	-2.177071	-5.346276	-3.812334	 37.924440	-2.927599	-2.450526	 36.184240	 0.754587	-1.378229	 35.397820	-2.634230	 0.205659	 3.969720	-3.209879	 1.364205	-9.293844	 1.044165	 89.787730	 78.384770	 179.278200	-33.809800	 73.983150	 33.015870	 0.997020	-6.153069	 17.500690	-15.298140	-3.328248	 9.503305	 6.437017	 35.671460	-0.771858	 2.830251	 35.756010	-7.813440	-2.350882	 35.473990	 5.254307
 0.265646	 1.983649	-0.673714	 14.580980	-3.455639	 1.543637	 7.095001	 8.340092	 170.849200	-2.043822	-59.239650	-0.945700	 0.187682	 55.038480	 1.415440	-2.330773	 36.785980	-0.192600	-0.182115	-20.915340	 173.909000	 8.252159	-45.038880	 7.055871	 6.179976	 86.304820	 0.978259	 2.407654	 17.080910	-0.230482	-2.008175	 3.111809	-1.472240	-1.250605	-1.579902	 0.082987	 0.374615	-3.480484	 0.036081	-91.837050	 77.486370	 178.607200	 36.098460	 69.228150	-44.115340	-9.900034	-3.990814	-20.571340	 5.594726	-2.201440	-5.340499	-3.812334	 37.924440	-2.927599	-2.450526	 36.184240	 0.754587	-1.378229	 35.397820	-2.634230	 0.131566	 3.358346	-2.242643	 1.202210	-8.653619	 0.790095	 89.825000	 79.346660	 179.163000	-34.201030	 73.503750	 33.814270	 0.964726	-6.214464	 17.926020	-15.095250	-3.316163	 9.513336	 6.437017	 35.671460	-0.771858	 2.830251	 35.756010	-7.813440	-2.350882	 35.473990	 5.254307
 0.269772	 1.913875	-0.667806	 15.313040	-3.692722	 3.208853	 5.144567	-0.828427	 169.215600	-1.043635	-71.290270	-2.091027	 0.679166	 59.761230	 0.421910	-2.309793	 38.929330	-0.247295	-0.569318	-16.292820	 171.928300	 8.366536	-42.976910	 6.236737	 6.027022	 87.690560	 0.921989	 2.407617	 16.835620	-0.235258	-2.016590	 3.369842	-3.151763	-1.076302	-1.486666	-0.241902	 0.284454	-3.544392	 0.027554	-91.859760	 76.865080	 178.772000	 34.639160	 70.336110	-41.085960	-10.625900	-3.778567	-19.637650	 5.360703	-2.225130	-5.335663	-3.812334	 37.924440	-2.927599	-2.450526	 36.184240	 0.754587	-1.378229	 35.397820	-2.634230	 0.101044	 3.364322	-1.522088	 0.900264	-8.823243	 0.352890	 89.837240	 79.966250	 179.321600	-35.239580	 72.558000	 35.896400	 0.908360	-6.417108	 19.000220	-14.757860	-3.298977	 9.526906	 6.437017	 35.671460	-0.771858	 2.830251	 35.756010	-7.813440	-2.350882	 35.473990	 5.254307
